<svg xmlns="http://www.w3.org/2000/svg" viewBox="0 0 58 58" fill="none">
  <circle cx="29" cy="29" r="28" fill="#024ad8"/>
  <path d="M20.5 17h-4.2l-5.1 14h4.2l1-2.8h4.6l1 2.8h4.2L20.5 17zm-3.1 8.2l1.5-4.2 1.5 4.2h-3zm18.1-8.2h-4.2v14h4.2v-5h3.5v5h4.2V17h-4.2v5.2h-3.5V17z" fill="white"/>
  <path d="M17.8 35.2h-2.2l1.6-4.4h2.2l-1.6 4.4zm6.7-4.4h-2.2l-1.6 4.4h2.2l1.6-4.4zm5.5 0h-2.2l-1.6 4.4h2.2l1.6-4.4zm8.2 0h-4.4v4.4h2.2v-2.2h2.2c.6 0 1.1.5 1.1 1.1s-.5 1.1-1.1 1.1h-1.1v-1.1h-2.2v1.1c0 1.8 1.5 3.3 3.3 3.3 1.8 0 3.3-1.5 3.3-3.3v-1.1c0-1.2-1-2.2-2.2-2.2h-1.1z" fill="white"/>
</svg>
